<?xml version="1.0" encoding="UTF-8" standalone="no"?>
<!DOCTYPE svg PUBLIC "-//W3C//DTD SVG 1.1//EN"
 "http://www.w3.org/Graphics/SVG/1.1/DTD/svg11.dtd">
<!-- Generated by graphviz version 14.1.2 (0)
 -->
<!-- Title: linko Pages: 1 -->
<svg width="1267pt" height="1364pt"
 viewBox="0.00 0.00 1267.00 1364.00" xmlns="http://www.w3.org/2000/svg" xmlns:xlink="http://www.w3.org/1999/xlink">
<g id="graph0" class="graph" transform="scale(1 1) rotate(0) translate(4 1360)">
<title>linko</title>
<polygon fill="white" stroke="none" points="-4,4 -4,-1360 1263.25,-1360 1263.25,4 -4,4"/>
<g id="clust1" class="cluster">
<title>cluster_L</title>
<polygon fill="none" stroke="black" points="8,-1168.5 8,-1348 602,-1348 602,-1168.5 8,-1168.5"/>
</g>
<!-- File: linko -->
<g id="node1" class="node">
<title>File: linko</title>
<g id="a_node1"><a xlink:title="linko">
<polygon fill="#f8f8f8" stroke="black" points="594.25,-1340 15.75,-1340 15.75,-1176.5 594.25,-1176.5 594.25,-1340"/>
<text xml:space="preserve" text-anchor="start" x="23.75" y="-1320.8" font-family="Times,serif" font-size="16.00">File: linko</text>
<text xml:space="preserve" text-anchor="start" x="23.75" y="-1301.3" font-family="Times,serif" font-size="16.00">Build ID: 2c78ab1ca291e3eccecf45dafe8ebfeb6ef226a6</text>
<text xml:space="preserve" text-anchor="start" x="23.75" y="-1281.8" font-family="Times,serif" font-size="16.00">Type: inuse_space</text>
<text xml:space="preserve" text-anchor="start" x="23.75" y="-1262.3" font-family="Times,serif" font-size="16.00">Time: 2026&#45;06&#45;12 15:12:41 +06</text>
<text xml:space="preserve" text-anchor="start" x="23.75" y="-1242.8" font-family="Times,serif" font-size="16.00">Duration: 30.01s, Total samples = 3639.49kB </text>
<text xml:space="preserve" text-anchor="start" x="23.75" y="-1223.3" font-family="Times,serif" font-size="16.00">Showing nodes accounting for 3639.49kB, 100% of 3639.49kB total</text>
<text xml:space="preserve" text-anchor="start" x="23.75" y="-1184.8" font-family="Times,serif" font-size="16.00">See https://git.io/JfYMW for how to read the graph</text>
</a>
</g>
</g>
<!-- N1 -->
<g id="node1" class="node">
<title>N1</title>
<g id="a_node1"><a xlink:title="net/http.HandlerFunc.ServeHTTP (2613.49kB)">
<polygon fill="#edd7d5" stroke="#b21000" points="729.25,-1023 612.75,-1023 612.75,-976 729.25,-976 729.25,-1023"/>
<text xml:space="preserve" text-anchor="middle" x="671" y="-1011.4" font-family="Times,serif" font-size="8.00">http</text>
<text xml:space="preserve" text-anchor="middle" x="671" y="-1001.65" font-family="Times,serif" font-size="8.00">HandlerFunc</text>
<text xml:space="preserve" text-anchor="middle" x="671" y="-991.9" font-family="Times,serif" font-size="8.00">ServeHTTP</text>
<text xml:space="preserve" text-anchor="middle" x="671" y="-982.15" font-family="Times,serif" font-size="8.00">0 of 2613.49kB (71.81%)</text>
</a>
</g>
</g>
<!-- N9 -->
<g id="node9" class="node">
<title>N9</title>
<g id="a_node9"><a xlink:title="main.(*server).handlerRedirect (2613.49kB)">
<polygon fill="#edd7d5" stroke="#b21000" points="414.25,-908.12 297.75,-908.12 297.75,-861.12 414.25,-861.12 414.25,-908.12"/>
<text xml:space="preserve" text-anchor="middle" x="356" y="-896.52" font-family="Times,serif" font-size="8.00">main</text>
<text xml:space="preserve" text-anchor="middle" x="356" y="-886.77" font-family="Times,serif" font-size="8.00">(*server)</text>
<text xml:space="preserve" text-anchor="middle" x="356" y="-877.02" font-family="Times,serif" font-size="8.00">handlerRedirect</text>
<text xml:space="preserve" text-anchor="middle" x="356" y="-867.27" font-family="Times,serif" font-size="8.00">0 of 2613.49kB (71.81%)</text>
</a>
</g>
</g>
<!-- N1&#45;&gt;N9 -->
<g id="edge9" class="edge">
<title>N1&#45;&gt;N9</title>
<g id="a_edge9"><a xlink:title="net/http.HandlerFunc.ServeHTTP &#45;&gt; main.(*server).handlerRedirect (2613.49kB)">
<path fill="none" stroke="#b21000" stroke-width="4" d="M612.47,-996.57C540.47,-993.11 423.55,-983.61 389.25,-958 377.99,-949.59 370.43,-936.44 365.4,-923.65"/>
<polygon fill="#b21000" stroke="#b21000" stroke-width="4" points="368.78,-922.73 362.34,-914.32 362.13,-924.91 368.78,-922.73"/>
</a>
</g>
<g id="a_edge9&#45;label"><a xlink:title="net/http.HandlerFunc.ServeHTTP &#45;&gt; main.(*server).handlerRedirect (2613.49kB)">
<text xml:space="preserve" text-anchor="middle" x="430.12" y="-944.7" font-family="Times,serif" font-size="14.00"> 2613.49kB</text>
</a>
</g>
</g>
<!-- N10 -->
<g id="node10" class="node">
<title>N10</title>
<g id="a_node10"><a xlink:title="main.newServer.metricsMiddleware.func5 (2613.49kB)">
<polygon fill="#edd7d5" stroke="#b21000" points="598.25,-913 481.75,-913 481.75,-856.25 598.25,-856.25 598.25,-913"/>
<text xml:space="preserve" text-anchor="middle" x="540" y="-901.4" font-family="Times,serif" font-size="8.00">main</text>
<text xml:space="preserve" text-anchor="middle" x="540" y="-891.65" font-family="Times,serif" font-size="8.00">newServer</text>
<text xml:space="preserve" text-anchor="middle" x="540" y="-881.9" font-family="Times,serif" font-size="8.00">metricsMiddleware</text>
<text xml:space="preserve" text-anchor="middle" x="540" y="-872.15" font-family="Times,serif" font-size="8.00">func5</text>
<text xml:space="preserve" text-anchor="middle" x="540" y="-862.4" font-family="Times,serif" font-size="8.00">0 of 2613.49kB (71.81%)</text>
</a>
</g>
</g>
<!-- N1&#45;&gt;N10 -->
<g id="edge10" class="edge">
<title>N1&#45;&gt;N10</title>
<g id="a_edge10"><a xlink:title="net/http.HandlerFunc.ServeHTTP &#45;&gt; main.newServer.metricsMiddleware.func5 (2613.49kB)">
<path fill="none" stroke="#b21000" stroke-width="4" d="M612.58,-994.03C562.78,-988.87 496.71,-978.32 480.25,-958 471.44,-947.12 475.27,-935.39 484.26,-924.61"/>
<polygon fill="#b21000" stroke="#b21000" stroke-width="4" points="486.69,-927.12 491.36,-917.61 481.78,-922.14 486.69,-927.12"/>
</a>
</g>
<g id="a_edge10&#45;label"><a xlink:title="net/http.HandlerFunc.ServeHTTP &#45;&gt; main.newServer.metricsMiddleware.func5 (2613.49kB)">
<text xml:space="preserve" text-anchor="middle" x="521.12" y="-944.7" font-family="Times,serif" font-size="14.00"> 2613.49kB</text>
</a>
</g>
</g>
<!-- N11 -->
<g id="node11" class="node">
<title>N11</title>
<g id="a_node11"><a xlink:title="main.newServer.newServer.requestID.func1.func4 (2613.49kB)">
<polygon fill="#edd7d5" stroke="#b21000" points="755.25,-922.75 638.75,-922.75 638.75,-846.5 755.25,-846.5 755.25,-922.75"/>
<text xml:space="preserve" text-anchor="middle" x="697" y="-911.15" font-family="Times,serif" font-size="8.00">main</text>
<text xml:space="preserve" text-anchor="middle" x="697" y="-901.4" font-family="Times,serif" font-size="8.00">newServer</text>
<text xml:space="preserve" text-anchor="middle" x="697" y="-891.65" font-family="Times,serif" font-size="8.00">newServer</text>
<text xml:space="preserve" text-anchor="middle" x="697" y="-881.9" font-family="Times,serif" font-size="8.00">requestID</text>
<text xml:space="preserve" text-anchor="middle" x="697" y="-872.15" font-family="Times,serif" font-size="8.00">func1</text>
<text xml:space="preserve" text-anchor="middle" x="697" y="-862.4" font-family="Times,serif" font-size="8.00">func4</text>
<text xml:space="preserve" text-anchor="middle" x="697" y="-852.65" font-family="Times,serif" font-size="8.00">0 of 2613.49kB (71.81%)</text>
</a>
</g>
</g>
<!-- N1&#45;&gt;N11 -->
<g id="edge11" class="edge">
<title>N1&#45;&gt;N11</title>
<g id="a_edge11"><a xlink:title="net/http.HandlerFunc.ServeHTTP &#45;&gt; main.newServer.newServer.requestID.func1.func4 (2613.49kB)">
<path fill="none" stroke="#b21000" stroke-width="4" d="M666.95,-975.72C665.78,-964.98 665.48,-952.06 668.25,-940.75 668.45,-939.92 668.67,-939.1 668.9,-938.27"/>
<polygon fill="#b21000" stroke="#b21000" stroke-width="4" points="672.17,-939.52 672.33,-928.93 665.6,-937.11 672.17,-939.52"/>
</a>
</g>
<g id="a_edge11&#45;label"><a xlink:title="net/http.HandlerFunc.ServeHTTP &#45;&gt; main.newServer.newServer.requestID.func1.func4 (2613.49kB)">
<text xml:space="preserve" text-anchor="middle" x="709.12" y="-944.7" font-family="Times,serif" font-size="14.00"> 2613.49kB</text>
</a>
</g>
</g>
<!-- N12 -->
<g id="node12" class="node">
<title>N12</title>
<g id="a_node12"><a xlink:title="main.newServer.newServer.requestLogger.func2.func3 (2613.49kB)">
<polygon fill="#edd7d5" stroke="#b21000" points="939.25,-922.75 822.75,-922.75 822.75,-846.5 939.25,-846.5 939.25,-922.75"/>
<text xml:space="preserve" text-anchor="middle" x="881" y="-911.15" font-family="Times,serif" font-size="8.00">main</text>
<text xml:space="preserve" text-anchor="middle" x="881" y="-901.4" font-family="Times,serif" font-size="8.00">newServer</text>
<text xml:space="preserve" text-anchor="middle" x="881" y="-891.65" font-family="Times,serif" font-size="8.00">newServer</text>
<text xml:space="preserve" text-anchor="middle" x="881" y="-881.9" font-family="Times,serif" font-size="8.00">requestLogger</text>
<text xml:space="preserve" text-anchor="middle" x="881" y="-872.15" font-family="Times,serif" font-size="8.00">func2</text>
<text xml:space="preserve" text-anchor="middle" x="881" y="-862.4" font-family="Times,serif" font-size="8.00">func3</text>
<text xml:space="preserve" text-anchor="middle" x="881" y="-852.65" font-family="Times,serif" font-size="8.00">0 of 2613.49kB (71.81%)</text>
</a>
</g>
</g>
<!-- N1&#45;&gt;N12 -->
<g id="edge12" class="edge">
<title>N1&#45;&gt;N12</title>
<g id="a_edge12"><a xlink:title="net/http.HandlerFunc.ServeHTTP &#45;&gt; main.newServer.newServer.requestLogger.func2.func3 (2613.49kB)">
<path fill="none" stroke="#b21000" stroke-width="4" d="M729.65,-996.99C765.92,-993.3 811.57,-983.38 844,-958 851.17,-952.39 857.08,-945 861.91,-937.1"/>
<polygon fill="#b21000" stroke="#b21000" stroke-width="4" points="864.91,-938.9 866.44,-928.42 858.71,-935.66 864.91,-938.9"/>
</a>
</g>
<g id="a_edge12&#45;label"><a xlink:title="net/http.HandlerFunc.ServeHTTP &#45;&gt; main.newServer.newServer.requestLogger.func2.func3 (2613.49kB)">
<text xml:space="preserve" text-anchor="middle" x="899.65" y="-944.7" font-family="Times,serif" font-size="14.00"> 2613.49kB</text>
</a>
</g>
</g>
<!-- N2 -->
<g id="node2" class="node">
<title>N2</title>
<g id="a_node2"><a xlink:title="internal/bytealg.MakeNoZero (2613.49kB)">
<polygon fill="#edd7d5" stroke="#b21000" points="486.62,-492.5 225.38,-492.5 225.38,-399 486.62,-399 486.62,-492.5"/>
<text xml:space="preserve" text-anchor="middle" x="356" y="-465.7" font-family="Times,serif" font-size="24.00">bytealg</text>
<text xml:space="preserve" text-anchor="middle" x="356" y="-437.2" font-family="Times,serif" font-size="24.00">MakeNoZero</text>
<text xml:space="preserve" text-anchor="middle" x="356" y="-408.7" font-family="Times,serif" font-size="24.00">2613.49kB (71.81%)</text>
</a>
</g>
</g>
<!-- NN2_0 -->
<g id="NN2_0" class="node">
<title>NN2_0</title>
<g id="a_NN2_0"><a xlink:title="2613.49kB">
<polygon fill="#f8f8f8" stroke="black" points="383,-345.12 333,-345.12 329,-341.12 329,-309.12 379,-309.12 383,-313.12 383,-345.12"/>
<polyline fill="none" stroke="black" points="379,-341.12 329,-341.12"/>
<polyline fill="none" stroke="black" points="379,-341.12 379,-309.12"/>
<polyline fill="none" stroke="black" points="379,-341.12 383,-345.12"/>
<text xml:space="preserve" text-anchor="middle" x="356" y="-324.4" font-family="Times,serif" font-size="8.00">21.25kB</text>
</a>
</g>
</g>
<!-- N2&#45;&gt;NN2_0 -->
<g id="edge1" class="edge">
<title>N2&#45;&gt;NN2_0</title>
<g id="a_edge1"><a xlink:title="2613.49kB">
<path fill="none" stroke="black" d="M356,-398.66C356,-384.47 356,-369.28 356,-356.64"/>
<polygon fill="black" stroke="black" points="359.5,-356.93 356,-346.93 352.5,-356.93 359.5,-356.93"/>
</a>
</g>
<g id="a_edge1&#45;label"><a xlink:title="2613.49kB">
<text xml:space="preserve" text-anchor="middle" x="396.88" y="-367.7" font-family="Times,serif" font-size="14.00"> 2613.49kB</text>
</a>
</g>
</g>
<!-- N3 -->
<g id="node3" class="node">
<title>N3</title>
<g id="a_node3"><a xlink:title="net/http.(*conn).serve (2613.49kB)">
<polygon fill="#edd7d5" stroke="#b21000" points="729.25,-1281.75 612.75,-1281.75 612.75,-1234.75 729.25,-1234.75 729.25,-1281.75"/>
<text xml:space="preserve" text-anchor="middle" x="671" y="-1270.15" font-family="Times,serif" font-size="8.00">http</text>
<text xml:space="preserve" text-anchor="middle" x="671" y="-1260.4" font-family="Times,serif" font-size="8.00">(*conn)</text>
<text xml:space="preserve" text-anchor="middle" x="671" y="-1250.65" font-family="Times,serif" font-size="8.00">serve</text>
<text xml:space="preserve" text-anchor="middle" x="671" y="-1240.9" font-family="Times,serif" font-size="8.00">0 of 2613.49kB (71.81%)</text>
</a>
</g>
</g>
<!-- N14 -->
<g id="node14" class="node">
<title>N14</title>
<g id="a_node14"><a xlink:title="net/http.serverHandler.ServeHTTP (2613.49kB)">
<polygon fill="#edd7d5" stroke="#b21000" points="729.25,-1123.25 612.75,-1123.25 612.75,-1076.25 729.25,-1076.25 729.25,-1123.25"/>
<text xml:space="preserve" text-anchor="middle" x="671" y="-1111.65" font-family="Times,serif" font-size="8.00">http</text>
<text xml:space="preserve" text-anchor="middle" x="671" y="-1101.9" font-family="Times,serif" font-size="8.00">serverHandler</text>
<text xml:space="preserve" text-anchor="middle" x="671" y="-1092.15" font-family="Times,serif" font-size="8.00">ServeHTTP</text>
<text xml:space="preserve" text-anchor="middle" x="671" y="-1082.4" font-family="Times,serif" font-size="8.00">0 of 2613.49kB (71.81%)</text>
</a>
</g>
</g>
<!-- N3&#45;&gt;N14 -->
<g id="edge8" class="edge">
<title>N3&#45;&gt;N14</title>
<g id="a_edge8"><a xlink:title="net/http.(*conn).serve &#45;&gt; net/http.serverHandler.ServeHTTP (2613.49kB)">
<path fill="none" stroke="#b21000" stroke-width="4" d="M671,-1234.49C671,-1209.57 671,-1169.19 671,-1139.3"/>
<polygon fill="#b21000" stroke="#b21000" stroke-width="4" points="674.5,-1139.59 671,-1129.59 667.5,-1139.59 674.5,-1139.59"/>
</a>
</g>
<g id="a_edge8&#45;label"><a xlink:title="net/http.(*conn).serve &#45;&gt; net/http.serverHandler.ServeHTTP (2613.49kB)">
<text xml:space="preserve" text-anchor="middle" x="711.88" y="-1145.2" font-family="Times,serif" font-size="14.00"> 2613.49kB</text>
</a>
</g>
</g>
<!-- N4 -->
<g id="node4" class="node">
<title>N4</title>
<g id="a_node4"><a xlink:title="runtime.mallocgc (1026kB)">
<polygon fill="#eddcd5" stroke="#b23800" points="1199.25,-164.75 1016.75,-164.75 1016.75,-89.25 1199.25,-89.25 1199.25,-164.75"/>
<text xml:space="preserve" text-anchor="middle" x="1108" y="-142.7" font-family="Times,serif" font-size="19.00">runtime</text>
<text xml:space="preserve" text-anchor="middle" x="1108" y="-120.2" font-family="Times,serif" font-size="19.00">mallocgc</text>
<text xml:space="preserve" text-anchor="middle" x="1108" y="-97.7" font-family="Times,serif" font-size="19.00">1026kB (28.19%)</text>
</a>
</g>
</g>
<!-- NN4_0 -->
<g id="NN4_0" class="node">
<title>NN4_0</title>
<g id="a_NN4_0"><a xlink:title="1026kB">
<polygon fill="#f8f8f8" stroke="black" points="1135,-36 1085,-36 1081,-32 1081,0 1131,0 1135,-4 1135,-36"/>
<polyline fill="none" stroke="black" points="1131,-32 1081,-32"/>
<polyline fill="none" stroke="black" points="1131,-32 1131,0"/>
<polyline fill="none" stroke="black" points="1131,-32 1135,-36"/>
<text xml:space="preserve" text-anchor="middle" x="1108" y="-15.28" font-family="Times,serif" font-size="8.00">2kB</text>
</a>
</g>
</g>
<!-- N4&#45;&gt;NN4_0 -->
<g id="edge2" class="edge">
<title>N4&#45;&gt;NN4_0</title>
<g id="a_edge2"><a xlink:title="1026kB">
<path fill="none" stroke="black" d="M1108,-88.88C1108,-75.34 1108,-60.25 1108,-47.57"/>
<polygon fill="black" stroke="black" points="1111.5,-47.79 1108,-37.79 1104.5,-47.79 1111.5,-47.79"/>
</a>
</g>
<g id="a_edge2&#45;label"><a xlink:title="1026kB">
<text xml:space="preserve" text-anchor="middle" x="1137.62" y="-57.95" font-family="Times,serif" font-size="14.00"> 1026kB</text>
</a>
</g>
</g>
<!-- N5 -->
<g id="node5" class="node">
<title>N5</title>
<g id="a_node5"><a xlink:title="runtime.schedule (1026kB)">
<polygon fill="#eddcd5" stroke="#b23800" points="1181.88,-903.25 1078.12,-903.25 1078.12,-866 1181.88,-866 1181.88,-903.25"/>
<text xml:space="preserve" text-anchor="middle" x="1130" y="-891.65" font-family="Times,serif" font-size="8.00">runtime</text>
<text xml:space="preserve" text-anchor="middle" x="1130" y="-881.9" font-family="Times,serif" font-size="8.00">schedule</text>
<text xml:space="preserve" text-anchor="middle" x="1130" y="-872.15" font-family="Times,serif" font-size="8.00">0 of 1026kB (28.19%)</text>
</a>
</g>
</g>
<!-- N6 -->
<g id="node6" class="node">
<title>N6</title>
<g id="a_node6"><a xlink:title="runtime.wakep (1026kB)">
<polygon fill="#eddcd5" stroke="#b23800" points="1159.88,-688.12 1056.12,-688.12 1056.12,-650.88 1159.88,-650.88 1159.88,-688.12"/>
<text xml:space="preserve" text-anchor="middle" x="1108" y="-676.52" font-family="Times,serif" font-size="8.00">runtime</text>
<text xml:space="preserve" text-anchor="middle" x="1108" y="-666.77" font-family="Times,serif" font-size="8.00">wakep</text>
<text xml:space="preserve" text-anchor="middle" x="1108" y="-657.02" font-family="Times,serif" font-size="8.00">0 of 1026kB (28.19%)</text>
</a>
</g>
</g>
<!-- N5&#45;&gt;N6 -->
<g id="edge29" class="edge">
<title>N5&#45;&gt;N6</title>
<g id="a_edge29"><a xlink:title="runtime.schedule &#45;&gt; runtime.wakep (513kB)">
<path fill="none" stroke="#b26c34" d="M1122.6,-865.66C1115.64,-847.69 1105.69,-819.09 1101.75,-793.25 1098.6,-772.6 1100.89,-767.12 1101.75,-746.25 1102.38,-730.95 1103.72,-713.96 1105,-699.96"/>
<polygon fill="#b26c34" stroke="#b26c34" points="1108.48,-700.33 1105.95,-690.04 1101.51,-699.66 1108.48,-700.33"/>
</a>
</g>
<g id="a_edge29&#45;label"><a xlink:title="runtime.schedule &#45;&gt; runtime.wakep (513kB)">
<text xml:space="preserve" text-anchor="middle" x="1126.88" y="-765.08" font-family="Times,serif" font-size="14.00"> 513kB</text>
</a>
</g>
</g>
<!-- N21 -->
<g id="node21" class="node">
<title>N21</title>
<g id="a_node21"><a xlink:title="runtime.resetspinning (513kB)">
<polygon fill="#ede3dc" stroke="#b26c34" points="1259.25,-788.38 1160.75,-788.38 1160.75,-751.12 1259.25,-751.12 1259.25,-788.38"/>
<text xml:space="preserve" text-anchor="middle" x="1210" y="-776.77" font-family="Times,serif" font-size="8.00">runtime</text>
<text xml:space="preserve" text-anchor="middle" x="1210" y="-767.02" font-family="Times,serif" font-size="8.00">resetspinning</text>
<text xml:space="preserve" text-anchor="middle" x="1210" y="-757.27" font-family="Times,serif" font-size="8.00">0 of 513kB (14.10%)</text>
</a>
</g>
</g>
<!-- N5&#45;&gt;N21 -->
<g id="edge28" class="edge">
<title>N5&#45;&gt;N21</title>
<g id="a_edge28"><a xlink:title="runtime.schedule &#45;&gt; runtime.resetspinning (513kB)">
<path fill="none" stroke="#b26c34" d="M1142.68,-865.74C1155.61,-847.49 1175.84,-818.95 1190.75,-797.91"/>
<polygon fill="#b26c34" stroke="#b26c34" points="1193.58,-799.97 1196.51,-789.79 1187.87,-795.92 1193.58,-799.97"/>
</a>
</g>
<g id="a_edge28&#45;label"><a xlink:title="runtime.schedule &#45;&gt; runtime.resetspinning (513kB)">
<text xml:space="preserve" text-anchor="middle" x="1204.64" y="-815.2" font-family="Times,serif" font-size="14.00"> 513kB</text>
</a>
</g>
</g>
<!-- N22 -->
<g id="node22" class="node">
<title>N22</title>
<g id="a_node22"><a xlink:title="runtime.startm (1026kB)">
<polygon fill="#eddcd5" stroke="#b23800" points="1159.88,-587.88 1056.12,-587.88 1056.12,-550.62 1159.88,-550.62 1159.88,-587.88"/>
<text xml:space="preserve" text-anchor="middle" x="1108" y="-576.27" font-family="Times,serif" font-size="8.00">runtime</text>
<text xml:space="preserve" text-anchor="middle" x="1108" y="-566.52" font-family="Times,serif" font-size="8.00">startm</text>
<text xml:space="preserve" text-anchor="middle" x="1108" y="-556.77" font-family="Times,serif" font-size="8.00">0 of 1026kB (28.19%)</text>
</a>
</g>
</g>
<!-- N6&#45;&gt;N22 -->
<g id="edge21" class="edge">
<title>N6&#45;&gt;N22</title>
<g id="a_edge21"><a xlink:title="runtime.wakep &#45;&gt; runtime.startm (1026kB)">
<path fill="none" stroke="#b23800" stroke-width="2" d="M1108,-650.48C1108,-636.63 1108,-617.18 1108,-600.89"/>
<polygon fill="#b23800" stroke="#b23800" stroke-width="2" points="1111.5,-601.18 1108,-591.18 1104.5,-601.18 1111.5,-601.18"/>
</a>
</g>
<g id="a_edge21&#45;label"><a xlink:title="runtime.wakep &#45;&gt; runtime.startm (1026kB)">
<text xml:space="preserve" text-anchor="middle" x="1137.62" y="-614.7" font-family="Times,serif" font-size="14.00"> 1026kB</text>
</a>
</g>
</g>
<!-- N7 -->
<g id="node7" class="node">
<title>N7</title>
<g id="a_node7"><a xlink:title="runtime.mcall (513kB)">
<polygon fill="#ede3dc" stroke="#b26c34" points="1226.25,-1118.38 1127.75,-1118.38 1127.75,-1081.12 1226.25,-1081.12 1226.25,-1118.38"/>
<text xml:space="preserve" text-anchor="middle" x="1177" y="-1106.78" font-family="Times,serif" font-size="8.00">runtime</text>
<text xml:space="preserve" text-anchor="middle" x="1177" y="-1097.03" font-family="Times,serif" font-size="8.00">mcall</text>
<text xml:space="preserve" text-anchor="middle" x="1177" y="-1087.28" font-family="Times,serif" font-size="8.00">0 of 513kB (14.10%)</text>
</a>
</g>
</g>
<!-- N20 -->
<g id="node20" class="node">
<title>N20</title>
<g id="a_node20"><a xlink:title="runtime.park_m (513kB)">
<polygon fill="#ede3dc" stroke="#b26c34" points="1226.25,-1018.12 1127.75,-1018.12 1127.75,-980.88 1226.25,-980.88 1226.25,-1018.12"/>
<text xml:space="preserve" text-anchor="middle" x="1177" y="-1006.52" font-family="Times,serif" font-size="8.00">runtime</text>
<text xml:space="preserve" text-anchor="middle" x="1177" y="-996.77" font-family="Times,serif" font-size="8.00">park_m</text>
<text xml:space="preserve" text-anchor="middle" x="1177" y="-987.02" font-family="Times,serif" font-size="8.00">0 of 513kB (14.10%)</text>
</a>
</g>
</g>
<!-- N7&#45;&gt;N20 -->
<g id="edge22" class="edge">
<title>N7&#45;&gt;N20</title>
<g id="a_edge22"><a xlink:title="runtime.mcall &#45;&gt; runtime.park_m (513kB)">
<path fill="none" stroke="#b26c34" d="M1177,-1080.73C1177,-1066.46 1177,-1046.25 1177,-1029.69"/>
<polygon fill="#b26c34" stroke="#b26c34" points="1180.5,-1029.92 1177,-1019.92 1173.5,-1029.92 1180.5,-1029.92"/>
</a>
</g>
<g id="a_edge22&#45;label"><a xlink:title="runtime.mcall &#45;&gt; runtime.park_m (513kB)">
<text xml:space="preserve" text-anchor="middle" x="1202.12" y="-1044.95" font-family="Times,serif" font-size="14.00"> 513kB</text>
</a>
</g>
</g>
<!-- N8 -->
<g id="node8" class="node">
<title>N8</title>
<g id="a_node8"><a xlink:title="runtime.mstart (513kB)">
<polygon fill="#ede3dc" stroke="#b26c34" points="1109.25,-1276.88 1010.75,-1276.88 1010.75,-1239.62 1109.25,-1239.62 1109.25,-1276.88"/>
<text xml:space="preserve" text-anchor="middle" x="1060" y="-1265.28" font-family="Times,serif" font-size="8.00">runtime</text>
<text xml:space="preserve" text-anchor="middle" x="1060" y="-1255.53" font-family="Times,serif" font-size="8.00">mstart</text>
<text xml:space="preserve" text-anchor="middle" x="1060" y="-1245.78" font-family="Times,serif" font-size="8.00">0 of 513kB (14.10%)</text>
</a>
</g>
</g>
<!-- N16 -->
<g id="node16" class="node">
<title>N16</title>
<g id="a_node16"><a xlink:title="runtime.mstart0 (513kB)">
<polygon fill="#ede3dc" stroke="#b26c34" points="1109.25,-1118.38 1010.75,-1118.38 1010.75,-1081.12 1109.25,-1081.12 1109.25,-1118.38"/>
<text xml:space="preserve" text-anchor="middle" x="1060" y="-1106.78" font-family="Times,serif" font-size="8.00">runtime</text>
<text xml:space="preserve" text-anchor="middle" x="1060" y="-1097.03" font-family="Times,serif" font-size="8.00">mstart0</text>
<text xml:space="preserve" text-anchor="middle" x="1060" y="-1087.28" font-family="Times,serif" font-size="8.00">0 of 513kB (14.10%)</text>
</a>
</g>
</g>
<!-- N8&#45;&gt;N16 -->
<g id="edge23" class="edge">
<title>N8&#45;&gt;N16</title>
<g id="a_edge23"><a xlink:title="runtime.mstart &#45;&gt; runtime.mstart0 (513kB)">
<path fill="none" stroke="#b26c34" d="M1060,-1239.3C1060,-1212.53 1060,-1161.87 1060,-1129.79"/>
<polygon fill="#b26c34" stroke="#b26c34" points="1063.5,-1130.01 1060,-1120.01 1056.5,-1130.01 1063.5,-1130.01"/>
</a>
</g>
<g id="a_edge23&#45;label"><a xlink:title="runtime.mstart &#45;&gt; runtime.mstart0 (513kB)">
<text xml:space="preserve" text-anchor="middle" x="1085.12" y="-1145.2" font-family="Times,serif" font-size="14.00"> 513kB</text>
</a>
</g>
</g>
<!-- N25 -->
<g id="node25" class="node">
<title>N25</title>
<g id="a_node25"><a xlink:title="strings.Repeat (2613.49kB)">
<polygon fill="#edd7d5" stroke="#b21000" points="414.25,-788.38 297.75,-788.38 297.75,-751.12 414.25,-751.12 414.25,-788.38"/>
<text xml:space="preserve" text-anchor="middle" x="356" y="-776.77" font-family="Times,serif" font-size="8.00">strings</text>
<text xml:space="preserve" text-anchor="middle" x="356" y="-767.02" font-family="Times,serif" font-size="8.00">Repeat</text>
<text xml:space="preserve" text-anchor="middle" x="356" y="-757.27" font-family="Times,serif" font-size="8.00">0 of 2613.49kB (71.81%)</text>
</a>
</g>
</g>
<!-- N9&#45;&gt;N25 -->
<g id="edge3" class="edge">
<title>N9&#45;&gt;N25</title>
<g id="a_edge3"><a xlink:title="main.(*server).handlerRedirect &#45;&gt; strings.Repeat (2613.49kB)">
<path fill="none" stroke="#b21000" stroke-width="4" d="M356,-860.78C356,-844.67 356,-822.82 356,-804.68"/>
<polygon fill="#b21000" stroke="#b21000" stroke-width="4" points="359.5,-804.79 356,-794.79 352.5,-804.79 359.5,-804.79"/>
</a>
</g>
<g id="a_edge3&#45;label"><a xlink:title="main.(*server).handlerRedirect &#45;&gt; strings.Repeat (2613.49kB)">
<text xml:space="preserve" text-anchor="middle" x="396.88" y="-815.2" font-family="Times,serif" font-size="14.00"> 2613.49kB</text>
</a>
</g>
</g>
<!-- N10&#45;&gt;N1 -->
<g id="edge4" class="edge">
<title>N10&#45;&gt;N1</title>
<g id="a_edge4"><a xlink:title="main.newServer.metricsMiddleware.func5 &#45;&gt; net/http.HandlerFunc.ServeHTTP (2613.49kB)">
<path fill="none" stroke="#b21000" stroke-width="4" d="M550.26,-913.2C556.93,-928.04 566.89,-945.76 580.25,-958 585.69,-962.98 591.85,-967.43 598.33,-971.39"/>
<polygon fill="#b21000" stroke="#b21000" stroke-width="4" points="596.64,-974.45 607.1,-976.15 599.98,-968.3 596.64,-974.45"/>
</a>
</g>
<g id="a_edge4&#45;label"><a xlink:title="main.newServer.metricsMiddleware.func5 &#45;&gt; net/http.HandlerFunc.ServeHTTP (2613.49kB)">
<text xml:space="preserve" text-anchor="middle" x="621.12" y="-944.7" font-family="Times,serif" font-size="14.00"> 2613.49kB</text>
</a>
</g>
</g>
<!-- N11&#45;&gt;N1 -->
<g id="edge5" class="edge">
<title>N11&#45;&gt;N1</title>
<g id="a_edge5"><a xlink:title="main.newServer.newServer.requestID.func1.func4 &#45;&gt; net/http.HandlerFunc.ServeHTTP (2613.49kB)">
<path fill="none" stroke="#b21000" stroke-width="4" d="M748.36,-923.18C757.15,-934.06 761.37,-946.2 754,-958 750.84,-963.06 746.85,-967.5 742.33,-971.4"/>
<polygon fill="#b21000" stroke="#b21000" stroke-width="4" points="740.49,-968.42 734.31,-977.02 744.51,-974.14 740.49,-968.42"/>
</a>
</g>
<g id="a_edge5&#45;label"><a xlink:title="main.newServer.newServer.requestID.func1.func4 &#45;&gt; net/http.HandlerFunc.ServeHTTP (2613.49kB)">
<text xml:space="preserve" text-anchor="middle" x="798.66" y="-944.7" font-family="Times,serif" font-size="14.00"> 2613.49kB</text>
</a>
</g>
</g>
<!-- N13 -->
<g id="node13" class="node">
<title>N13</title>
<g id="a_node13"><a xlink:title="net/http.(*ServeMux).ServeHTTP (2613.49kB)">
<polygon fill="#edd7d5" stroke="#b21000" points="978.25,-793.25 861.75,-793.25 861.75,-746.25 978.25,-746.25 978.25,-793.25"/>
<text xml:space="preserve" text-anchor="middle" x="920" y="-781.65" font-family="Times,serif" font-size="8.00">http</text>
<text xml:space="preserve" text-anchor="middle" x="920" y="-771.9" font-family="Times,serif" font-size="8.00">(*ServeMux)</text>
<text xml:space="preserve" text-anchor="middle" x="920" y="-762.15" font-family="Times,serif" font-size="8.00">ServeHTTP</text>
<text xml:space="preserve" text-anchor="middle" x="920" y="-752.4" font-family="Times,serif" font-size="8.00">0 of 2613.49kB (71.81%)</text>
</a>
</g>
</g>
<!-- N12&#45;&gt;N13 -->
<g id="edge6" class="edge">
<title>N12&#45;&gt;N13</title>
<g id="a_edge6"><a xlink:title="main.newServer.newServer.requestLogger.func2.func3 &#45;&gt; net/http.(*ServeMux).ServeHTTP (2613.49kB)">
<path fill="none" stroke="#b21000" stroke-width="4" d="M876.55,-846.15C876.51,-834.6 877.87,-822.09 882.25,-811.25 882.9,-809.65 883.64,-808.07 884.46,-806.52"/>
<polygon fill="#b21000" stroke="#b21000" stroke-width="4" points="887.23,-808.67 890.08,-798.46 881.49,-804.66 887.23,-808.67"/>
</a>
</g>
<g id="a_edge6&#45;label"><a xlink:title="main.newServer.newServer.requestLogger.func2.func3 &#45;&gt; net/http.(*ServeMux).ServeHTTP (2613.49kB)">
<text xml:space="preserve" text-anchor="middle" x="923.12" y="-815.2" font-family="Times,serif" font-size="14.00"> 2613.49kB</text>
</a>
</g>
</g>
<!-- N13&#45;&gt;N1 -->
<g id="edge7" class="edge">
<title>N13&#45;&gt;N1</title>
<g id="a_edge7"><a xlink:title="net/http.(*ServeMux).ServeHTTP &#45;&gt; net/http.HandlerFunc.ServeHTTP (2613.49kB)">
<path fill="none" stroke="#b21000" stroke-width="4" d="M951.75,-793.74C956.73,-798.9 961.16,-804.78 964,-811.25 990.42,-871.48 991.48,-911.47 945,-958 917.67,-985.36 816.53,-994.33 745.11,-997.21"/>
<polygon fill="#b21000" stroke="#b21000" stroke-width="4" points="745.38,-993.7 735.51,-997.55 745.63,-1000.7 745.38,-993.7"/>
</a>
</g>
<g id="a_edge7&#45;label"><a xlink:title="net/http.(*ServeMux).ServeHTTP &#45;&gt; net/http.HandlerFunc.ServeHTTP (2613.49kB)">
<text xml:space="preserve" text-anchor="middle" x="1023.13" y="-879.95" font-family="Times,serif" font-size="14.00"> 2613.49kB</text>
</a>
</g>
</g>
<!-- N14&#45;&gt;N1 -->
<g id="edge13" class="edge">
<title>N14&#45;&gt;N1</title>
<g id="a_edge13"><a xlink:title="net/http.serverHandler.ServeHTTP &#45;&gt; net/http.HandlerFunc.ServeHTTP (2613.49kB)">
<path fill="none" stroke="#b21000" stroke-width="4" d="M671,-1075.96C671,-1064.93 671,-1051.37 671,-1038.81"/>
<polygon fill="#b21000" stroke="#b21000" stroke-width="4" points="674.5,-1039.22 671,-1029.22 667.5,-1039.22 674.5,-1039.22"/>
</a>
</g>
<g id="a_edge13&#45;label"><a xlink:title="net/http.serverHandler.ServeHTTP &#45;&gt; net/http.HandlerFunc.ServeHTTP (2613.49kB)">
<text xml:space="preserve" text-anchor="middle" x="711.88" y="-1044.95" font-family="Times,serif" font-size="14.00"> 2613.49kB</text>
</a>
</g>
</g>
<!-- N15 -->
<g id="node15" class="node">
<title>N15</title>
<g id="a_node15"><a xlink:title="runtime.allocm (1026kB)">
<polygon fill="#eddcd5" stroke="#b23800" points="1159.88,-345.75 1056.12,-345.75 1056.12,-308.5 1159.88,-308.5 1159.88,-345.75"/>
<text xml:space="preserve" text-anchor="middle" x="1108" y="-334.15" font-family="Times,serif" font-size="8.00">runtime</text>
<text xml:space="preserve" text-anchor="middle" x="1108" y="-324.4" font-family="Times,serif" font-size="8.00">allocm</text>
<text xml:space="preserve" text-anchor="middle" x="1108" y="-314.65" font-family="Times,serif" font-size="8.00">0 of 1026kB (28.19%)</text>
</a>
</g>
</g>
<!-- N19 -->
<g id="node19" class="node">
<title>N19</title>
<g id="a_node19"><a xlink:title="runtime.newobject (1026kB)">
<polygon fill="#eddcd5" stroke="#b23800" points="1159.88,-255.25 1056.12,-255.25 1056.12,-218 1159.88,-218 1159.88,-255.25"/>
<text xml:space="preserve" text-anchor="middle" x="1108" y="-243.65" font-family="Times,serif" font-size="8.00">runtime</text>
<text xml:space="preserve" text-anchor="middle" x="1108" y="-233.9" font-family="Times,serif" font-size="8.00">newobject</text>
<text xml:space="preserve" text-anchor="middle" x="1108" y="-224.15" font-family="Times,serif" font-size="8.00">0 of 1026kB (28.19%)</text>
</a>
</g>
</g>
<!-- N15&#45;&gt;N19 -->
<g id="edge17" class="edge">
<title>N15&#45;&gt;N19</title>
<g id="a_edge17"><a xlink:title="runtime.allocm &#45;&gt; runtime.newobject (1026kB)">
<path fill="none" stroke="#b23800" stroke-width="2" d="M1108,-308.22C1108,-296.82 1108,-281.76 1108,-268.48"/>
<polygon fill="#b23800" stroke="#b23800" stroke-width="2" points="1111.5,-268.53 1108,-258.53 1104.5,-268.53 1111.5,-268.53"/>
</a>
</g>
<g id="a_edge17&#45;label"><a xlink:title="runtime.allocm &#45;&gt; runtime.newobject (1026kB)">
<text xml:space="preserve" text-anchor="middle" x="1137.62" y="-277.2" font-family="Times,serif" font-size="14.00"> 1026kB</text>
</a>
</g>
</g>
<!-- N17 -->
<g id="node17" class="node">
<title>N17</title>
<g id="a_node17"><a xlink:title="runtime.mstart1 (513kB)">
<polygon fill="#ede3dc" stroke="#b26c34" points="1109.25,-1018.12 1010.75,-1018.12 1010.75,-980.88 1109.25,-980.88 1109.25,-1018.12"/>
<text xml:space="preserve" text-anchor="middle" x="1060" y="-1006.52" font-family="Times,serif" font-size="8.00">runtime</text>
<text xml:space="preserve" text-anchor="middle" x="1060" y="-996.77" font-family="Times,serif" font-size="8.00">mstart1</text>
<text xml:space="preserve" text-anchor="middle" x="1060" y="-987.02" font-family="Times,serif" font-size="8.00">0 of 513kB (14.10%)</text>
</a>
</g>
</g>
<!-- N16&#45;&gt;N17 -->
<g id="edge24" class="edge">
<title>N16&#45;&gt;N17</title>
<g id="a_edge24"><a xlink:title="runtime.mstart0 &#45;&gt; runtime.mstart1 (513kB)">
<path fill="none" stroke="#b26c34" d="M1060,-1080.73C1060,-1066.46 1060,-1046.25 1060,-1029.69"/>
<polygon fill="#b26c34" stroke="#b26c34" points="1063.5,-1029.92 1060,-1019.92 1056.5,-1029.92 1063.5,-1029.92"/>
</a>
</g>
<g id="a_edge24&#45;label"><a xlink:title="runtime.mstart0 &#45;&gt; runtime.mstart1 (513kB)">
<text xml:space="preserve" text-anchor="middle" x="1085.12" y="-1044.95" font-family="Times,serif" font-size="14.00"> 513kB</text>
</a>
</g>
</g>
<!-- N17&#45;&gt;N5 -->
<g id="edge25" class="edge">
<title>N17&#45;&gt;N5</title>
<g id="a_edge25"><a xlink:title="runtime.mstart1 &#45;&gt; runtime.schedule (513kB)">
<path fill="none" stroke="#b26c34" d="M1071.09,-980.61C1082.36,-962.45 1099.95,-934.08 1112.98,-913.07"/>
<polygon fill="#b26c34" stroke="#b26c34" points="1115.87,-915.06 1118.16,-904.71 1109.92,-911.37 1115.87,-915.06"/>
</a>
</g>
<g id="a_edge25&#45;label"><a xlink:title="runtime.mstart1 &#45;&gt; runtime.schedule (513kB)">
<text xml:space="preserve" text-anchor="middle" x="1120.12" y="-944.7" font-family="Times,serif" font-size="14.00"> 513kB</text>
</a>
</g>
</g>
<!-- N18 -->
<g id="node18" class="node">
<title>N18</title>
<g id="a_node18"><a xlink:title="runtime.newm (1026kB)">
<polygon fill="#eddcd5" stroke="#b23800" points="1159.88,-464.38 1056.12,-464.38 1056.12,-427.12 1159.88,-427.12 1159.88,-464.38"/>
<text xml:space="preserve" text-anchor="middle" x="1108" y="-452.77" font-family="Times,serif" font-size="8.00">runtime</text>
<text xml:space="preserve" text-anchor="middle" x="1108" y="-443.02" font-family="Times,serif" font-size="8.00">newm</text>
<text xml:space="preserve" text-anchor="middle" x="1108" y="-433.27" font-family="Times,serif" font-size="8.00">0 of 1026kB (28.19%)</text>
</a>
</g>
</g>
<!-- N18&#45;&gt;N15 -->
<g id="edge18" class="edge">
<title>N18&#45;&gt;N15</title>
<g id="a_edge18"><a xlink:title="runtime.newm &#45;&gt; runtime.allocm (1026kB)">
<path fill="none" stroke="#b23800" stroke-width="2" d="M1108,-426.78C1108,-408.67 1108,-380.36 1108,-358.71"/>
<polygon fill="#b23800" stroke="#b23800" stroke-width="2" points="1111.5,-358.95 1108,-348.95 1104.5,-358.95 1111.5,-358.95"/>
</a>
</g>
<g id="a_edge18&#45;label"><a xlink:title="runtime.newm &#45;&gt; runtime.allocm (1026kB)">
<text xml:space="preserve" text-anchor="middle" x="1137.62" y="-367.7" font-family="Times,serif" font-size="14.00"> 1026kB</text>
</a>
</g>
</g>
<!-- N19&#45;&gt;N4 -->
<g id="edge19" class="edge">
<title>N19&#45;&gt;N4</title>
<g id="a_edge19"><a xlink:title="runtime.newobject &#45;&gt; runtime.mallocgc (1026kB)">
<path fill="none" stroke="#b23800" stroke-width="2" d="M1108,-217.85C1108,-206.88 1108,-192.21 1108,-177.91"/>
<polygon fill="#b23800" stroke="#b23800" stroke-width="2" points="1111.5,-178.03 1108,-168.03 1104.5,-178.03 1111.5,-178.03"/>
</a>
</g>
<g id="a_edge19&#45;label"><a xlink:title="runtime.newobject &#45;&gt; runtime.mallocgc (1026kB)">
<text xml:space="preserve" text-anchor="middle" x="1137.62" y="-186.7" font-family="Times,serif" font-size="14.00"> 1026kB</text>
</a>
</g>
</g>
<!-- N20&#45;&gt;N5 -->
<g id="edge26" class="edge">
<title>N20&#45;&gt;N5</title>
<g id="a_edge26"><a xlink:title="runtime.park_m &#45;&gt; runtime.schedule (513kB)">
<path fill="none" stroke="#b26c34" d="M1169.55,-980.61C1162.09,-962.7 1150.5,-934.85 1141.79,-913.94"/>
<polygon fill="#b26c34" stroke="#b26c34" points="1145.07,-912.71 1137.99,-904.82 1138.61,-915.4 1145.07,-912.71"/>
</a>
</g>
<g id="a_edge26&#45;label"><a xlink:title="runtime.park_m &#45;&gt; runtime.schedule (513kB)">
<text xml:space="preserve" text-anchor="middle" x="1184.22" y="-944.7" font-family="Times,serif" font-size="14.00"> 513kB</text>
</a>
</g>
</g>
<!-- N21&#45;&gt;N6 -->
<g id="edge27" class="edge">
<title>N21&#45;&gt;N6</title>
<g id="a_edge27"><a xlink:title="runtime.resetspinning &#45;&gt; runtime.wakep (513kB)">
<path fill="none" stroke="#b26c34" d="M1191.29,-750.73C1175.48,-735.49 1152.62,-713.48 1134.85,-696.36"/>
<polygon fill="#b26c34" stroke="#b26c34" points="1137.31,-693.87 1127.68,-689.46 1132.45,-698.91 1137.31,-693.87"/>
</a>
</g>
<g id="a_edge27&#45;label"><a xlink:title="runtime.resetspinning &#45;&gt; runtime.wakep (513kB)">
<text xml:space="preserve" text-anchor="middle" x="1190.23" y="-714.95" font-family="Times,serif" font-size="14.00"> 513kB</text>
</a>
</g>
</g>
<!-- N22&#45;&gt;N18 -->
<g id="edge20" class="edge">
<title>N22&#45;&gt;N18</title>
<g id="a_edge20"><a xlink:title="runtime.startm &#45;&gt; runtime.newm (1026kB)">
<path fill="none" stroke="#b23800" stroke-width="2" d="M1108,-550.32C1108,-531.21 1108,-500.59 1108,-477.59"/>
<polygon fill="#b23800" stroke="#b23800" stroke-width="2" points="1111.5,-477.78 1108,-467.78 1104.5,-477.78 1111.5,-477.78"/>
</a>
</g>
<g id="a_edge20&#45;label"><a xlink:title="runtime.startm &#45;&gt; runtime.newm (1026kB)">
<text xml:space="preserve" text-anchor="middle" x="1137.62" y="-514.45" font-family="Times,serif" font-size="14.00"> 1026kB</text>
</a>
</g>
</g>
<!-- N23 -->
<g id="node23" class="node">
<title>N23</title>
<g id="a_node23"><a xlink:title="strings.(*Builder).Grow (2613.49kB)">
<polygon fill="#edd7d5" stroke="#b21000" points="414.25,-693 297.75,-693 297.75,-646 414.25,-646 414.25,-693"/>
<text xml:space="preserve" text-anchor="middle" x="356" y="-681.4" font-family="Times,serif" font-size="8.00">strings</text>
<text xml:space="preserve" text-anchor="middle" x="356" y="-671.65" font-family="Times,serif" font-size="8.00">(*Builder)</text>
<text xml:space="preserve" text-anchor="middle" x="356" y="-661.9" font-family="Times,serif" font-size="8.00">Grow</text>
<text xml:space="preserve" text-anchor="middle" x="356" y="-652.15" font-family="Times,serif" font-size="8.00">0 of 2613.49kB (71.81%)</text>
</a>
</g>
</g>
<!-- N24 -->
<g id="node24" class="node">
<title>N24</title>
<g id="a_node24"><a xlink:title="strings.(*Builder).grow (2613.49kB)">
<polygon fill="#edd7d5" stroke="#b21000" points="414.25,-592.75 297.75,-592.75 297.75,-545.75 414.25,-545.75 414.25,-592.75"/>
<text xml:space="preserve" text-anchor="middle" x="356" y="-581.15" font-family="Times,serif" font-size="8.00">strings</text>
<text xml:space="preserve" text-anchor="middle" x="356" y="-571.4" font-family="Times,serif" font-size="8.00">(*Builder)</text>
<text xml:space="preserve" text-anchor="middle" x="356" y="-561.65" font-family="Times,serif" font-size="8.00">grow</text>
<text xml:space="preserve" text-anchor="middle" x="356" y="-551.9" font-family="Times,serif" font-size="8.00">0 of 2613.49kB (71.81%)</text>
</a>
</g>
</g>
<!-- N23&#45;&gt;N24 -->
<g id="edge14" class="edge">
<title>N23&#45;&gt;N24</title>
<g id="a_edge14"><a xlink:title="strings.(*Builder).Grow &#45;&gt; strings.(*Builder).grow (2613.49kB)">
<path fill="none" stroke="#b21000" stroke-width="4" d="M356,-645.71C356,-634.68 356,-621.12 356,-608.56"/>
<polygon fill="#b21000" stroke="#b21000" stroke-width="4" points="359.5,-608.97 356,-598.97 352.5,-608.97 359.5,-608.97"/>
</a>
</g>
<g id="a_edge14&#45;label"><a xlink:title="strings.(*Builder).Grow &#45;&gt; strings.(*Builder).grow (2613.49kB)">
<text xml:space="preserve" text-anchor="middle" x="396.88" y="-614.7" font-family="Times,serif" font-size="14.00"> 2613.49kB</text>
</a>
</g>
</g>
<!-- N24&#45;&gt;N2 -->
<g id="edge15" class="edge">
<title>N24&#45;&gt;N2</title>
<g id="a_edge15"><a xlink:title="strings.(*Builder).grow &#45;&gt; internal/bytealg.MakeNoZero (2613.49kB)">
<path fill="none" stroke="#b21000" stroke-width="4" d="M356,-545.4C356,-534.89 356,-521.86 356,-508.76"/>
<polygon fill="#b21000" stroke="#b21000" stroke-width="4" points="359.5,-508.96 356,-498.96 352.5,-508.96 359.5,-508.96"/>
</a>
</g>
<g id="a_edge15&#45;label"><a xlink:title="strings.(*Builder).grow &#45;&gt; internal/bytealg.MakeNoZero (2613.49kB)">
<text xml:space="preserve" text-anchor="middle" x="396.88" y="-514.45" font-family="Times,serif" font-size="14.00"> 2613.49kB</text>
</a>
</g>
</g>
<!-- N25&#45;&gt;N23 -->
<g id="edge16" class="edge">
<title>N25&#45;&gt;N23</title>
<g id="a_edge16"><a xlink:title="strings.Repeat &#45;&gt; strings.(*Builder).Grow (2613.49kB)">
<path fill="none" stroke="#b21000" stroke-width="4" d="M356,-750.73C356,-739.1 356,-723.53 356,-709.19"/>
<polygon fill="#b21000" stroke="#b21000" stroke-width="4" points="359.5,-709.3 356,-699.3 352.5,-709.3 359.5,-709.3"/>
</a>
</g>
<g id="a_edge16&#45;label"><a xlink:title="strings.Repeat &#45;&gt; strings.(*Builder).Grow (2613.49kB)">
<text xml:space="preserve" text-anchor="middle" x="396.88" y="-714.95" font-family="Times,serif" font-size="14.00"> 2613.49kB</text>
</a>
</g>
</g>
</g>
</svg>
